<svg width="1092" height="1092" viewBox="0 0 1092 1092" fill="none" xmlns="http://www.w3.org/2000/svg">
  <rect width="1092" height="1092" rx="80" fill="#0000FF"/>
  <path d="M200 237.5C200 219.879 214.103 205.5 232 205.5H860C871.874 205.5 882.668 212.098 888.5 222.5L692 387.5H232C214.103 387.5 200 373.121 200 355.5V237.5Z" fill="#F5F5F5"/>
  <path d="M200 469C200 451.379 214.103 437 232 437H860C871.874 437 882.668 443.598 888.5 454L692 619H232C214.103 619 200 604.621 200 587V469Z" fill="#F5F5F5"/>
  <path d="M200 700.5C200 682.879 214.103 668.5 232 668.5H860C871.874 668.5 882.668 675.098 888.5 685.5L692 850.5H232C214.103 850.5 200 836.121 200 818.5V700.5Z" fill="#F5F5F5"/>
</svg>
