<svg width="1092" height="1092" viewBox="0 0 1092 1092" fill="none" xmlns="http://www.w3.org/2000/svg">
  <rect width="1092" height="1092" fill="#F5F5F5"/>
  <path d="M45 95C45 77.3269 59.3269 63 77 63H1005C1016.87 63 1027.67 69.598 1033.5 80L847 318H77C59.3269 318 45 303.673 45 286V95Z" fill="#0000FF"/>
  <path d="M45 433C45 415.327 59.3269 401 77 401H1035C1046.87 401 1057.67 407.598 1063.5 418L847 656H77C59.3269 656 45 641.673 45 624V433Z" fill="#0000FF"/>
  <path d="M45 771C45 753.327 59.3269 739 77 739H1005C1016.87 739 1027.67 745.598 1033.5 756L847 994H77C59.3269 994 45 979.673 45 962V771Z" fill="#0000FF"/>
</svg>
